<svg id="nga_plateau_labs-1" xmlns="http://www.w3.org/2000/svg" xmlns:xlink="http://www.w3.org/1999/xlink" viewBox="0 0 480 460" shape-rendering="geometricPrecision" text-rendering="geometricPrecision" style="background-color:transparent"><path id="nga_plateau_labs-1-u-path3768" d="M68.85821,18.5c-.7.8-1.5,4.1-1.9,7.3-1,8.1-3.5,11.7-11.1,15.5-7.4,3.7-11.7,8.7-14.9,17.2-3,8.1-2.7,13.6,1.4,23.5c1.9,4.7,3.5,9.4,3.5,10.6c0,1.9-1.9,4.3-6.8,8.5-1.6,1.3-2,3.8-2.7,16-1.1,19.4-1.1,23.9-.2,27.1.6,2.3.1,3.5-3.9,7.9-3.2,3.6-4.4,5.8-4.1,7.1.8,2.9-1,6.2-4.5,8.3l-3.1,1.8.6,8.7c.5,7.7.3,9-1.3,10.5-1.4,1.2-1.6,2.3-1,5c1.4,6.4,14.6,25.3,22.4,32.2c5.7,5.1,6.9,7.7,7,14.8c0,4.4-.7,7.5-2.7,11.7-3.3,6.9-3.3,7.5-.4,11.1c1.9,2.4,3.1,2.9,8.7,3.3c7.7.6,10.9,2.4,11.1,6.2.1,1.5.2,4.7.3,7.2.2,6.5,5.1,14.9,10.2,17.5c4.4,2.2,12.9,3.5,25.4,4c7.4.3,9.2,0,13.7-2.2c5.1-2.4,5.2-2.4,8.2-.7c1.7,1,3.1,2.3,3.1,2.9s.9,1.8,2,2.8c1.1.9,2,2.3,2,3.2c0,2.8-5,12.8-9.5,18.7-2.5,3.3-4.9,6.6-5.3,7.3-1,1.7-5.1,3.7-6.1,3-2-1.2-8.1,3.7-10,8.1-1.1,2.4-3.6,5.9-5.5,7.9-3.1,3-3.6,4.2-3.6,8.1c0,5.2,3,11.9,6.8,15c3.1,2.6,4.2,9,2.9,17.7-.6,4.1-.5,6.8.3,8.8c1.5,3.6,6.2,7.7,9.8,8.5c1.5.4,5.2,2.2,8.2,4c9.9,6,12.9,6.6,29.5,6.5c13.7-.2,16-.5,27-3.6c6.6-1.9,13.9-4.1,16.3-4.9l4.3-1.6l8,4.1c4.4,2.2,12.3,5.5,17.5,7.4c12.6,4.6,16.8,7.6,20.5,14.9l3,5.8l13.2-.4c13.6-.5,24.9-2.9,32.8-6.9c2-1,9.6-7.8,17-15.1c12.3-12.3,14.3-13.8,24.8-19.3c6.3-3.3,12.2-6.9,13.2-8c7.8-8.8,15.5-19.2,18.8-25.5c3.5-6.8,4.4-7.7,9.3-10.2c6.3-3,31.3-8.8,38.3-8.8c3.8,0,8.2-1.7,24.9-9.8l20.3-9.9l3.1-5.4c4.3-7.6,4.6-10.8,2.2-22.4-1.6-7.8-1.8-10.5-1-12.6c1.9-4.4-1.9-20.1-7.2-30.4-3-5.7-3.8-8.8-4.7-16.6-.7-6.2-.7-11.6-.1-15.3c1.8-10.9-2.4-28.4-6.9-29.4-.8-.2-3.2-1.6-5.5-3.1-2.2-1.6-7.2-4.5-11.1-6.5-3.8-2-10.4-5.9-14.5-8.6-10.1-6.6-25.3-14.4-32-16.3-3-.9-10.4-4.4-16.5-7.8-17.7-9.9-29.6-15.5-35.5-16.9-4.8-1.1-11.1-4-26.9-12.7l-4.3-2.4-4.8,3.1c-7,4.5-7.1,6.6-1,14.2c5.5,6.9,7.6,12.4,6.2,16.6-.8,2.6-3.1,3.7-15.2,7-1.8.6-3.6,3-7,9.4l-4.5,8.8-8,2.4c-13.5,4.2-38.2,5.3-50.5,2.2-4.1-1-11.8-2.3-17-2.8-9.2-1-15.3-3.1-17.8-6.1-.7-.7-2.6-4.7-4.2-8.8-3.8-9.1-6.8-12.4-13.4-14.5-11.5-3.7-12.3-6.9-5.2-20.1l4.4-8.2-.7-13.8c-.8-14-1.3-16.1-5.8-22.1-3.7-5-6.1-5.5-16.7-3.6-19.9,3.6-23.2,4.2-25.3,4.9l-2.3.7-.2-17.8c-.1-9.9-.2-19.3-.1-20.9.2-8.6-1.8-17-5.9-24.6-3.7-7-4.6-8-8.9-9.8-6-2.6-20.9-3-22.9-.6Z" stroke-width="0.1"/><path id="nga_plateau_labs-1-u-bassa" d="M91.85821,20.2c3.4,1.8,5.1,3.7,7.7,8.3c1.8,3.3,3.8,7.6,4.3,9.5.6,1.9,1.4,13.3,1.7,25.4l.6,21.9-3.5-.7c-1.9-.3-4.8-.2-6.4.3-1.6.6-4.8,1.5-7.2,2.1-2.5.6-5.9,2.6-8,4.7-2,1.9-5.4,4.6-7.4,5.9-2.3,1.5-4,3.4-4.4,5.2-.3,1.5-1.2,4.7-1.9,7.2-2.1,6.7-3.5,13.7-4.5,21.2-.9,7.7-3.7,12.5-7.8,13.4-3.7.9-10,2.9-14.4,4.8-5.1,2.2-6.1,2-4.4-.7c1.2-1.8,1.3-3,.4-6.4-.7-3-.7-6.9.1-13.7.6-5.2,1.1-13.1,1.1-17.5c0-6.2.4-8.3,1.6-9.3c4.4-3.5,7.4-7.2,7.4-9.2c0-1.1-1.6-5.9-3.5-10.6-4.1-9.9-4.4-15.4-1.5-23.4c3.3-8.7,7.1-13.1,14.4-16.6c5.2-2.4,7.1-4,9.1-7.4c1.4-2.4,2.5-5.8,2.5-7.9c0-2,.4-4.7,1-6.1.9-2.5,1.2-2.6,9.8-2.6c7.1,0,9.6.4,13.2,2.2Z" fill="#d40000" stroke-width="0.1"/><path id="nga_plateau_labs-1-u-josnorth" d="M102.75821,85.6l3.1.6v15.7c-.1,10.3-.5,16.3-1.3,17.8-2.4,4.4-12.3,10.3-17.1,10.3-1.9,0-5,.7-6.9,1.5-5.5,2.3-7.6,1.9-8.8-1.4-.6-1.8-2.2-3.4-4-4.1-3.4-1.4-3.4-1.9.1-14c1-3.6,2.1-7.7,2.4-9.2.4-1.6,1.8-3.4,3.4-4.2c1.5-.8,4.6-3.3,7-5.5c2.6-2.4,6-4.5,8.5-5.1c2.3-.6,5.3-1.5,6.7-2c3.3-1.1,3.2-1.1,6.9-.4Z" fill="#f00" stroke-width="0.1"/><path id="nga_plateau_labs-1-u-joseast" d="M148.55821,88.2c.8.6,2.6,3.1,4,5.6c2.4,4,2.7,5.9,3.4,18.4l.7,14-4,7.4c-3.5,6.4-4.4,7.5-7.6,8.4-4.4,1.1-11.4,5.4-15.9,9.7-7.6,7.1-20.4,4.1-21.7-5.1-2.1-13.8-2.7-21.9-2.1-24.7.4-1.9.9-9.1,1.2-16l.4-12.6l3.7-1.2c2-.6,6.6-1.6,10.2-2.2c3.6-.5,9.7-1.6,13.5-2.4c7.4-1.4,11.9-1.2,14.2.7Z" fill="#800000" stroke-width="0.1"/><path id="nga_plateau_labs-1-u-jossouth" d="M101.65821,127.8c-2.6,2.8-5.8,11.4-5.8,15.6c0,1.5-1.5,4-4,6.6-2.2,2.3-4,4.7-4,5.4s-1.2,3.5-2.6,6.4c-2.2,4.5-3,5.2-6.2,5.7-6.1.9-11.2,2.5-11.2,3.4c0,2.1-3.1,1.7-6.9-.9-2.4-1.5-7-3.3-10.4-4-8.7-1.8-9.4-2.3-9.9-7.2-.3-2.4-.8-5-1.2-5.9-.5-1.1.1-1.9,2.1-2.8c3.3-1.5,9.6-3.6,13.5-4.5c4.3-1,8.1-6.8,8.6-13.2.2-3,.9-5.7,1.4-6c1.5-.9,5.8,2.5,5.8,4.6c0,2.8,4.2,3.6,9.3,1.6c2.4-.9,5.7-1.6,7.4-1.6c3.1,0,8.2-2.4,13.3-6.3c3.4-2.5,3.9-.3.8,3.1Z" fill="#008000" stroke-width="0.1"/><path id="nga_plateau_labs-1-u-kanam" d="M300.05821,126.4c15.7,8.6,22,11.5,26.8,12.6c5.9,1.4,17.8,7,35.5,16.9c6.1,3.4,13.5,6.9,16.5,7.8c6.7,1.9,21.9,9.7,32,16.3c4.1,2.7,10.7,6.6,14.5,8.6c10.6,5.6,18.3,11.1,20,14.5.9,1.6,1.9,5.2,2.2,7.9l.6,4.9-3.4.5c-1.9.3-5.2.8-7.4,1.2s-7.8.6-12.5.5c-9.6-.3-13.1-1.7-20.7-8.2-11.8-10.4-17.4-12.2-26.8-8.8-3.3,1.2-7.3,2-9,1.9-10.9-.9-12.3-.6-16,3-4.3,4.1-6.5,8-6.5,11.3c0,1.6-.8,2.8-2.5,3.5-1.3.6-3.6,2.9-5,5-1.4,2.2-5.5,6.1-9,8.6-3.5,2.6-6.6,5.4-6.9,6.2-.7,1.8.8,5,2.5,5.6.9.3.9.9.1,2.4-1.1,2-13.8,6.4-18.7,6.4-3.9,0-9.1-2.5-13.1-6.4-2-2-6.1-4.5-9.1-5.6-5.3-2-7.3-2-15-.4-3.2.6-2.9-.4,1.7-6.5c3.2-4.2,4-6.2,4-9.5c0-2.2.6-7.3,1.2-11.1c1.6-10.1,1.5-11.2-2.6-19.5-2-4.1-3.6-8.2-3.6-9c0-.9-.5-2.1-1.2-2.8-.9-.9-.9-1.2,0-1.2.6,0,3.2-4.1,5.8-9c3.7-7.2,5.1-9.1,7.3-9.6c1.4-.3,5.2-1.3,8.3-2.2c5-1.4,5.9-2,6.8-4.8c1.6-4.9-.2-10-6-17.2-6-7.4-5.9-9.4.3-13.4c2.3-1.5,4.3-2.8,4.4-2.8s2.2,1.1,4.5,2.4Z" fill="#000080" stroke-width="0.1"/><path id="nga_plateau_labs-1-u-barkinladi" d="M105.45821,139.5c1.3,13.8,4.2,16.9,16.3,17h7.6l.8,4c.4,2.2,1,5.2,1.4,6.7.5,2.4-.4,3.7-7.1,10.3-5.7,5.7-7.8,8.6-8.7,11.8-.6,2.3-2.1,7.1-3.4,10.7s-2.6,7.9-3,9.7c-.6,2.8-1.2,3.4-5.8,4.7-2.9.8-8.3,1.7-12.2,2.1-7.6.7-18,4.7-19.5,7.5-.8,1.5-6.3,4.5-18.1,9.7l-4.5,2.1-1.1-2.8c-1-2.7-.8-2.9,6.7-7.8c6.3-4.2,8.1-5.9,10-9.9c1.2-2.6,3.2-6.2,4.4-7.8c1.2-1.7,3.1-5.3,4.1-8c1-2.8,3.6-6.8,5.7-8.9c2.1-2.2,4.1-5,4.5-6.3.9-3.7-.3-11.2-2.1-13.2-2-2.2-2-3.1-.1-3.1c1.6,0,5.7-6.6,7.5-12.2.6-2,1.9-3.9,2.8-4.2c2-.7,5.2-6,5.2-8.7c0-3.1,3.1-12.2,4.9-14.2c1.5-1.8,1.6-1.7,2.3,1c.4,1.5,1.1,5.9,1.4,9.8Z" stroke-width="0.1"/><path id="nga_plateau_labs-1-u-mangu" d="M149.55821,151.2c.8.9,4.3,2.6,7.8,3.8c3.4,1.1,7.1,3.1,8.3,4.3c1.1,1.2,3.7,6,5.6,10.7l3.6,8.5-2.1,1.6c-2,1.5-2.1,2.2-1.5,7.9.4,3.5,1.4,8.3,2.2,10.8c1.4,4,1.4,5.1-.1,11.6-1,3.9-3.2,10.5-5,14.6l-3.2,7.5.2,28c.1,15.4,0,28.5-.2,29.2-.3.7-2.5,2.4-4.9,3.8-2.5,1.4-5,3.5-5.7,4.6-1,1.5-2.3,1.9-7.3,1.9-6,0-6.1,0-7-3.3-.7-2.4-1.7-3.4-4.2-4.2-3.2-.9-4-1.9-2.3-2.9c1-.7.5-10.5-.9-18.1-.5-2.8-1.7-9.2-2.5-14.3-1-5.5-3-12.4-4.9-16.5-1.8-4-4.5-10.5-6.1-14.6-1.5-4.1-4.3-9.1-6.1-11.1-3.7-4.1-3.7-4.3.1-15c1.3-3.6,2.8-8.3,3.4-10.6.8-3,3.1-6.1,8.7-11.8c6.6-6.7,7.5-8,7-10.4-.3-1.5-.8-4.3-1.2-6.2-.3-1.9-1.4-4.3-2.2-5.3-1.5-1.7-1.4-2,1.3-4.2c4.6-3.8,9.4-6.7,13.4-8.1l3.6-1.2.3,3.6c.2,2.1,1,4.5,1.9,5.4Z" fill="#e9afaf" stroke-width="0.1"/><path id="nga_plateau_labs-1-u-riyom" d="M38.85821,153.9c.5,1.1,1,3.5,1,5.3s.4,3.8.8,4.5c.4.6,4.1,1.9,8.2,2.8s9.5,3,11.9,4.5c3.7,2.4,4.8,2.7,6.4,1.7c5.1-3.1,6.4-3.7,8.8-3.7c4,0,6.2,3.2,6.7,9.9.4,5.7.3,5.9-4.1,10.8-2.4,2.8-5.3,7.3-6.3,9.9-1,2.7-2.8,6.2-4,7.9-1.2,1.6-3.2,5.1-4.3,7.6-1.6,3.4-3.7,5.6-8.4,8.7-3.4,2.2-6.9,4.3-7.7,4.7-2.2.8-8.8-5.1-15.3-13.8-11.7-15.5-15.1-23.2-11.7-26.2c1.6-1.5,1.8-2.8,1.3-10.4-.6-8.6-.6-8.6,2.2-10.1c3.2-1.7,5.6-5.9,4.9-8.6s3.2-7.4,6.1-7.4c1.4,0,2.9.8,3.5,1.9Z" fill="#f00" stroke-width="0.1"/><path id="nga_plateau_labs-1-u-pankshin" d="M179.95821,181.5c2.4,1.4,5.8,2.5,7.4,2.5c7.2.1,7.5.4,7.5,9.4c0,8.1,0,8.2,4.6,14.1c4.3,5.8,4.5,6.2,3.9,11.3-.3,2.9-1.2,7.1-1.9,9.4-1.6,4.6-2.1,2.9,5.4,22.3c2.3,6,4.6,11.4,5,11.9c1.5,1.5,7.8-1.4,10.7-5c9.8-12.1,10.5-12.6,15-10.1c1.1.7,4.2,4,6.6,7.4c2.5,3.4,5.3,6.5,6.2,7.1c1.6.8,1.6,1.3.1,6.3-1.7,5.7-1.3,5.3-15.5,14.2-4,2.6-4.6,2.7-5.7,1.3-1.5-2.2-1.9-2.1-6.1,1.7-4.4,3.9-6.9,5-7.6,3.4-.3-.7-1.8-2-3.4-2.9-2.9-1.7-3.1-1.7-5.1.5-1.1,1.2-2.4,3.7-2.9,5.6-.9,3.4-3.3,5.5-3.3,2.9c0-1.5-4.6-6.8-5.9-6.8-.5,0-3.1-1.8-5.7-4.1l-4.9-4-7.5.4c-4.1.2-8.2.7-9,1-1.3.6-1.5-2.5-1.5-25v-25.8l2.7-5.1c1.5-2.9,3.7-9,4.9-13.7c1.9-7.8,2-8.7.6-12.9-.9-2.5-1.9-7.3-2.3-10.7-.6-5.4-.4-6.4,1.2-7.6c1.1-.8,2-1.5,2-1.5.1,0,2.2,1.1,4.5,2.5Z" fill="#ffb380" stroke-width="0.1"/><path id="nga_plateau_labs-1-u-kanke" d="M269.35821,188.5c.7,2.2,2.5,6.5,4,9.5c3.2,6.1,3.2,6.5,1.5,21-1.4,12.5-2.4,14.7-9.9,23.1-3.2,3.5-7.3,9.2-9.2,12.6-1.8,3.5-3.9,6.3-4.6,6.3-.8,0-3.6-3.1-6.3-6.8-4.7-6.4-8.2-9.2-11.4-9.2-1.3,0-6.6,5.5-11.4,11.9-1.9,2.5-8.7,6-9.7,4.9-.1-.1-2.2-5.3-4.5-11.3-7.5-19.4-7-17.7-5.4-22.3.7-2.3,1.6-6.5,1.9-9.4.6-5.1.4-5.5-3.9-11.3l-4.6-6v-8.3-8.4l3.8.5c2,.3,7.1,1.3,11.2,2.3c11.4,2.8,38.4,1.9,49-1.7c3-1,6.1-1.8,6.9-1.6.8.1,1.9,2,2.6,4.2Z" fill="#800000" stroke-width="0.1"/><path id="nga_plateau_labs-1-u-wase" d="M394.35821,203.5c2.2,1.3,6.4,4.4,9.4,7c8.2,7,11.4,8.3,21.1,8.6c4.7.1,11.7-.3,15.5-.9c3.9-.6,7.4-.7,7.8-.2.5.4.4,3.9-.2,7.6-1.7,11,.2,24.2,4.7,32.9c5.3,10.4,9.1,26,7.2,30.5-.9,2.1-.7,4.8,1,12.9c2.4,11.3,2.1,14.1-1.9,21.5-2.6,4.9-2.8,5-22.8,14.8-16.7,8.1-21,9.8-24.8,9.8-7.4,0-32.3,5.9-38.7,9.1-5.3,2.7-6.1,3.5-9.8,10.7-2.2,4.2-7,11.3-10.6,15.7s-7.2,8.8-8,9.7c-2.1,2.7-3.9,2.2-6.5-1.8-1.9-2.8-4.9-4.7-14.9-9.4-13.2-6.3-16.6-9.1-22.5-18.6-4.2-6.8-6.1-12-9.6-25.9-2.3-8.9-2.9-13.1-2.4-16.5c1.2-8.7.8-12.9-1.8-18.2l-2.6-5.3l5.8-5.5c4.1-3.8,7.1-7.8,9.6-13c3.6-7.2,3.7-7.7,2.6-12-1.2-4.5-1.2-4.5,2.4-7.6c2.3-2.1,6.3-4,11.7-5.5c5.7-1.7,8.5-3,9.6-4.7c1.4-2.1,1.3-2.4-.7-4.3-1.1-1.1-2.1-2.3-2.1-2.7c0-1.4,2.3-3.7,8.2-8.1c3.2-2.4,6.7-5.9,7.9-7.7c1.1-1.9,3.4-4.1,5-4.9c2-1.1,2.9-2.3,2.9-4.1c0-3.3,2.1-7.2,6-10.9c3.2-3.1,4.9-3.3,15.5-2.5c1.7.1,5.5-.7,8.5-1.9c6.6-2.5,11.7-2.1,17.5,1.4Z" fill="#0f0" stroke-width="0.1"/><path id="nga_plateau_labs-1-u-bokkos" d="M113.15821,216c1.4,1.6,3.7,6.2,5.3,10.2c1.5,4,4.2,10.5,6,14.5c1.9,4.2,3.9,11,4.8,16.5.9,5.1,2.1,11.3,2.6,13.8c1.4,6.6,1.5,17.1.1,20-.6,1.4-2.2,3.9-3.5,5.7l-2.3,3.1-3.1-2-3.2-2-5.2,2.4c-4.4,2-6.7,2.4-13.3,2.3-11.6-.3-20.4-1.6-25-3.5-5.7-2.4-9.7-9.9-10.1-18.7-.2-3.5-.6-7.2-.9-8.2-.8-2.5-4.8-4-12-4.6-4.7-.3-6.3-.9-7.7-2.7-2.3-3-2.3-3.9.8-10.5c1.6-3.2,2.8-7.8,3-10.7.2-4.9.4-5.1,4.6-7c14.5-6.5,17.8-8.3,18.3-9.7.9-2.7,11.3-6.7,19.5-7.5c4.1-.4,9.8-1.5,12.5-2.4c2.8-1,5.3-1.8,5.7-1.9.3,0,1.7,1.2,3.1,2.9Z" fill="#f4d7d7" stroke-width="0.1"/><path id="nga_plateau_labs-1-u-langtangnorth" d="M284.05821,244c2.9,1.1,7.2,3.8,9.6,6c2.5,2.4,6,4.5,8.5,5.2l4.3,1.1-3.3,3.1c-3.4,3.1-3.4,3.1-2.2,7.7c1.2,4.4,1.1,4.7-3,12.7-3.1,5.9-5.8,9.4-9.7,12.7-5.8,5-6.2,5.8-3.9,8.1.8.9,2.2,4.1,3.1,7.2c1.3,4.4,1.4,6.2.5,8.7-1.7,4.8-1.3,8.9,1.9,21.9c1.6,6.6,2.8,12.1,2.6,12.3-.2.3-3.9-.1-8.3-.8-4.3-.7-9.2-1.3-10.9-1.3l-3.1-.1-.2-10.2c-.1-9.8,0-10.3,2.7-13.5c4.7-5.6,8.2-11.3,8.2-13.5c0-1.1-1.1-4.5-2.4-7.6-2.1-4.7-2.9-5.5-5.9-6.1-2.8-.5-9.7-6.4-9.7-8.2c0-.8-8.4-12.4-8.9-12.4-.4,0-1.4-.7-2.4-1.4-1.7-1.3-1.7-1.7.1-8.3c3-10.7,12.2-25.6,14.9-24c.4.2,2.8.1,5.3-.3s5-.8,5.7-.9c.7,0,3.6.8,6.5,1.9Z" fill="#d40000" stroke-width="0.1"/><path id="nga_plateau_labs-1-u-shendam" d="M251.75821,276.6c2.5,1.5,5.6,5.3,9.1,11.4c3,5.1,8.3,10,11.5,10.6c2.7.5,3.5,1.4,5.4,5.8c1.1,2.8,2.1,6,2.1,7.1c0,2.1-3.7,8-8.4,13.5-3.8,4.6-7,3.5-16.7-5.5-8.5-7.9-9.9-8.5-22.4-8.9-6.7-.2-15.5,1.7-20.1,4.3-1,.6-3.5,1.7-5.5,2.5l-3.6,1.4-3.2-5.2c-1.7-2.9-3.1-6.4-3.1-7.8c0-3.2-1.5-3.8-8.9-3.8-6.8,0-10.5-2-9.5-5.3.3-1.2,1.9-4.3,3.5-6.8s2.9-5.4,2.8-6.5c0-1.4-.3-1.2-.9.7-.4,1.4-1.9,4.3-3.3,6.5-5.6,8.7-3.9,11.6,7.6,12.4c7.1.5,7.1.5,7.8,3.7.3,1.8,2.1,5.4,3.8,8.2l3.2,5l3.7-1.5c2-.8,4.6-1.9,5.6-2.5c4.6-2.6,13.4-4.5,20.1-4.3c12.5.4,13.9,1,22.4,8.9c4.8,4.5,9,7.5,11,8l3.1.7.2,7.1c0,4,0,8.3-.1,9.7-.2,3.1-6.6,9-9.6,9-6.1,0-10.9,8.8-12,22-.7,8.9,1,18.9,4.1,23.7.8,1.2,1.4,3,1.4,4s1.1,3.6,2.5,5.8c4.5,7.5,7.5,13.4,7.5,15c0,.9,1.3,2.8,2.8,4.3c5.1,4.9,8.4,9.9,7,10.8-.7.4-7.3,1-14.8,1.2l-13.5.4-2.5-5.1c-3.2-6.8-9.1-11.1-21.3-15.6-5.3-1.9-13.2-5.2-17.5-7.4l-7.9-4-10.4,3.3c-5.7,1.8-11.7,3.6-13.3,4l-2.9.7.6-7.6c.5-6.8,1.1-8.6,6.8-19.3c6.9-12.8,7.1-13.8,6.8-35.5l-.1-7.7l4,.6c3.5.5,4.1.3,4.7-1.5.9-2.8-.8-5.5-5.1-8.2-4.4-2.7-6.3-7-7.5-16.4-.5-3.9-2-9.2-3.4-12-2.1-4.4-2.2-5.1-.9-6.6.9-1,1.4-3.5,1.3-6.5c0-2.7.3-7.5.7-10.7l.6-5.7h3.7c2.7,0,4.8,1,8.3,3.7c2.6,2.1,5.9,4.6,7.3,5.6c1.4,1.1,3,3,3.5,4.3c1.6,4,4.1,2.6,5.4-3.1.4-1.7,1.5-3.8,2.3-4.8c1.5-1.6,1.8-1.6,4.2-.1c1.4,1,2.9,2.3,3.4,3c1,1.8,3.4.8,8-3.3c3.7-3.3,5.7-3.6,5.7-.7c0,1.7,6.4-1.7,13.8-7.3c5-3.8,5.4-3.9,9.1-1.7Z" fill="#f55" stroke-width="0.1"/><path id="nga_plateau_labs-1-u-quanpan" d="M175.35821,286.7c-.4,3.2-.6,8-.6,10.7.1,3-.5,5.6-1.4,6.5-1.2,1.5-1.1,2.2,1,6.6c1.4,2.8,2.9,8.1,3.4,12c1.2,9.6,3.2,13.9,8,17c6.8,4.6,6.8,9.1-.1,8l-4-.7.1,8.3c.3,22.4.1,23.3-6.8,36.1-5.7,10.7-6.3,12.5-6.8,19.4-.5,6.6-.9,7.7-2.8,8.4-1.2.5-9.2.9-17.6,1.1-17,.2-21.6-.9-30.9-7.1-2.5-1.6-5.2-3-6-3-2.8,0-8-4-9.6-7.3-1.3-2.6-1.4-4.6-.7-9.3c1.3-8.8.2-15.2-2.9-17.9-3.9-3.3-6.8-9.8-6.8-14.8c0-3.8.5-5,3.9-8.3c2.1-2.2,4.4-5.6,5.2-7.7c1.3-3.7,7.1-8.3,8.9-7.2s6.1-2,9.1-6.7c1.7-2.6,3.5-4.8,3.9-4.8c1.1,0,9-16.1,9-18.3c0-.9-1-2.7-2.2-3.9-2.1-2.1-2.1-2.1-.2-5.6c2.4-4.4,4.4-5.7,7.7-4.8c2,.5,2.8,1.4,3.3,4.1l.6,3.5h6.9c5.8,0,7-.3,7.9-2c.6-1.1,3.1-3.1,5.5-4.6c5.3-3,6.5-4.9,5.8-8.5-.4-2.2,0-2.8,2.4-3.7c1.5-.6,3.9-1.1,5.2-1.1c2.3-.1,2.3,0,1.6,5.6Z" fill="#d45500" stroke-width="0.1"/><path id="nga_plateau_labs-1-u-langtangsouth" d="M286.75821,351.4c7,1,7.5,1.3,8.5,4.1c1.6,4.5,6.6,12.2,11.1,17.2c3,3.3,7,5.8,16.3,10.2c9.7,4.6,12.8,6.6,14.7,9.4l2.4,3.5-10.2,5.8c-8.6,4.9-12.2,7.7-23.2,18.7-13.6,13.6-16.6,15.6-25.8,18l-5.6,1.5-4.1-5.4c-2.2-3-4.5-5.4-5-5.4s-1.3-1.2-1.6-2.8c-.7-2.8-3.7-8.7-7.9-15.7-1.4-2.2-2.5-4.8-2.5-5.8s-.6-2.8-1.4-4-2.2-5.1-3.1-8.7c-3.6-13.9.8-33.3,8-35.4c4.4-1.3,7.2-2.7,9.3-4.6c2.7-2.6,4.3-3,8.7-2.3c2.2.3,7.3,1.1,11.4,1.7Z" fill="#deaa87" stroke-width="0.1"/></svg>